<svg xmlns="http://www.w3.org/2000/svg" xmlns:xlink="http://www.w3.org/1999/xlink" width="300" zoomAndPan="magnify" viewBox="0 0 224.87999 127.500001" height="170" preserveAspectRatio="xMidYMid meet" version="1.0"><defs><g/><clipPath id="77c1f3821f"><rect x="0" width="124" y="0" height="38"/></clipPath><clipPath id="c95a63a97d"><rect x="0" width="115" y="0" height="24"/></clipPath></defs><g transform="matrix(1, 0, 0, 1, 51, 38)"><g clip-path="url(#77c1f3821f)"><g fill="#ff9c9c" fill-opacity="0.4"><g transform="translate(0.333445, 27.862485)"><g><path d="M 9.515625 -9.171875 L 9.515625 -9.921875 C 10.398438 -9.921875 11.164062 -10.175781 11.8125 -10.6875 C 12.46875 -11.207031 12.941406 -11.90625 13.234375 -12.78125 C 13.523438 -13.664062 13.582031 -14.65625 13.40625 -15.75 C 13.238281 -16.84375 12.773438 -17.984375 12.015625 -19.171875 C 11.523438 -19.929688 10.921875 -20.601562 10.203125 -21.1875 C 9.492188 -21.78125 8.765625 -22.242188 8.015625 -22.578125 C 7.265625 -22.910156 6.554688 -23.078125 5.890625 -23.078125 C 5.054688 -23.078125 4.453125 -22.929688 4.078125 -22.640625 C 3.710938 -22.359375 3.5 -22.035156 3.4375 -21.671875 C 3.382812 -21.304688 3.414062 -20.960938 3.53125 -20.640625 C 3.707031 -20.203125 4.003906 -19.835938 4.421875 -19.546875 C 4.835938 -19.265625 5.296875 -18.984375 5.796875 -18.703125 C 6.304688 -18.421875 6.800781 -18.09375 7.28125 -17.71875 C 7.757812 -17.351562 8.148438 -16.867188 8.453125 -16.265625 C 8.765625 -15.671875 8.921875 -14.894531 8.921875 -13.9375 L 8.921875 0 L 0.84375 0 L 0.84375 -17.25 C 0.84375 -18.84375 1.117188 -20.15625 1.671875 -21.1875 C 2.222656 -22.21875 2.9375 -23.03125 3.8125 -23.625 C 4.6875 -24.21875 5.625 -24.632812 6.625 -24.875 C 7.632812 -25.125 8.597656 -25.25 9.515625 -25.25 C 11.816406 -25.25 13.867188 -24.9375 15.671875 -24.3125 C 17.484375 -23.6875 18.910156 -22.816406 19.953125 -21.703125 C 21.003906 -20.597656 21.53125 -19.320312 21.53125 -17.875 C 21.53125 -16.320312 21.054688 -14.890625 20.109375 -13.578125 C 19.160156 -12.265625 17.789062 -11.203125 16 -10.390625 C 14.207031 -9.578125 12.046875 -9.171875 9.515625 -9.171875 Z M 9.515625 -9.171875 "/></g></g></g><g fill="#ff9c9c" fill-opacity="0.4"><g transform="translate(22.707807, 27.862485)"><g><path d="M 13.15625 -25.21875 C 14.90625 -25.21875 16.523438 -24.890625 18.015625 -24.234375 C 19.515625 -23.585938 20.84375 -22.675781 22 -21.5 C 23.15625 -20.332031 24.050781 -18.984375 24.6875 -17.453125 C 25.332031 -15.921875 25.65625 -14.269531 25.65625 -12.5 C 25.65625 -10.726562 25.332031 -9.070312 24.6875 -7.53125 C 24.050781 -6 23.15625 -4.648438 22 -3.484375 C 20.84375 -2.316406 19.515625 -1.398438 18.015625 -0.734375 C 16.523438 -0.0664062 14.90625 0.265625 13.15625 0.265625 C 11.4375 0.265625 9.820312 -0.0664062 8.3125 -0.734375 C 6.800781 -1.398438 5.472656 -2.316406 4.328125 -3.484375 C 3.179688 -4.648438 2.28125 -6 1.625 -7.53125 C 0.976562 -9.070312 0.65625 -10.726562 0.65625 -12.5 C 0.65625 -14.269531 0.976562 -15.921875 1.625 -17.453125 C 2.28125 -18.984375 3.179688 -20.332031 4.328125 -21.5 C 5.472656 -22.675781 6.800781 -23.585938 8.3125 -24.234375 C 9.820312 -24.890625 11.4375 -25.21875 13.15625 -25.21875 Z M 19.390625 -2.46875 C 20.097656 -2.914062 20.457031 -3.769531 20.46875 -5.03125 C 20.488281 -6.289062 20.203125 -7.785156 19.609375 -9.515625 C 19.015625 -11.253906 18.140625 -13.035156 16.984375 -14.859375 C 15.859375 -16.703125 14.648438 -18.273438 13.359375 -19.578125 C 12.066406 -20.878906 10.847656 -21.796875 9.703125 -22.328125 C 8.566406 -22.867188 7.640625 -22.921875 6.921875 -22.484375 C 6.234375 -22.046875 5.878906 -21.195312 5.859375 -19.9375 C 5.835938 -18.6875 6.125 -17.191406 6.71875 -15.453125 C 7.320312 -13.722656 8.191406 -11.9375 9.328125 -10.09375 C 10.484375 -8.25 11.703125 -6.675781 12.984375 -5.375 C 14.273438 -4.070312 15.492188 -3.15625 16.640625 -2.625 C 17.785156 -2.101562 18.703125 -2.050781 19.390625 -2.46875 Z M 19.390625 -2.46875 "/></g></g></g><g fill="#ff9c9c" fill-opacity="0.4"><g transform="translate(49.026251, 27.862485)"><g><path d="M 11.578125 0 L 0.65625 0 C 0.65625 -1.320312 0.851562 -2.707031 1.25 -4.15625 C 1.644531 -5.613281 2.15625 -7.050781 2.78125 -8.46875 C 3.40625 -9.894531 4.066406 -11.234375 4.765625 -12.484375 C 5.472656 -13.742188 6.132812 -14.84375 6.75 -15.78125 C 7.164062 -16.414062 7.617188 -17.050781 8.109375 -17.6875 C 8.597656 -18.332031 9.078125 -18.945312 9.546875 -19.53125 C 9.078125 -21.082031 8.617188 -22.25 8.171875 -23.03125 C 7.734375 -23.820312 7.097656 -24.21875 6.265625 -24.21875 L 6.265625 -25.171875 C 8.128906 -25.171875 9.769531 -24.925781 11.1875 -24.4375 C 12.601562 -23.945312 13.816406 -23.296875 14.828125 -22.484375 C 15.847656 -21.671875 16.691406 -20.757812 17.359375 -19.75 C 18.023438 -18.75 18.53125 -17.734375 18.875 -16.703125 C 19.65625 -14.335938 20.300781 -12.085938 20.8125 -9.953125 C 21.332031 -7.816406 21.960938 -5.890625 22.703125 -4.171875 C 23.171875 -3.109375 23.800781 -2.519531 24.59375 -2.40625 C 25.394531 -2.300781 26.09375 -2.554688 26.6875 -3.171875 L 27.3125 -2.5 C 26.570312 -1.46875 25.664062 -0.75 24.59375 -0.34375 C 23.53125 0.0625 22.53125 0.265625 21.59375 0.265625 C 20.25 0.265625 19.03125 -0.0664062 17.9375 -0.734375 C 16.84375 -1.398438 15.910156 -2.265625 15.140625 -3.328125 C 14.378906 -4.398438 13.789062 -5.539062 13.375 -6.75 L 7.890625 -6.75 C 8.304688 -5.414062 8.835938 -4.160156 9.484375 -2.984375 C 10.140625 -1.804688 10.835938 -0.8125 11.578125 0 Z M 13.078125 -7.625 C 12.546875 -9.320312 12.015625 -11.128906 11.484375 -13.046875 C 10.953125 -14.960938 10.414062 -16.78125 9.875 -18.5 C 9.65625 -18.1875 9.4375 -17.878906 9.21875 -17.578125 C 9 -17.285156 8.773438 -16.96875 8.546875 -16.625 C 7.710938 -15.375 7.257812 -13.953125 7.1875 -12.359375 C 7.113281 -10.773438 7.273438 -9.195312 7.671875 -7.625 Z M 13.078125 -7.625 "/></g></g></g><g fill="#ff9c9c" fill-opacity="0.4"><g transform="translate(73.833419, 27.862485)"><g><path d="M 9.515625 -9.171875 L 9.515625 -9.921875 C 10.398438 -9.921875 11.164062 -10.175781 11.8125 -10.6875 C 12.46875 -11.207031 12.941406 -11.90625 13.234375 -12.78125 C 13.523438 -13.664062 13.582031 -14.65625 13.40625 -15.75 C 13.238281 -16.84375 12.773438 -17.984375 12.015625 -19.171875 C 11.523438 -19.929688 10.921875 -20.601562 10.203125 -21.1875 C 9.492188 -21.78125 8.765625 -22.242188 8.015625 -22.578125 C 7.265625 -22.910156 6.554688 -23.078125 5.890625 -23.078125 C 5.054688 -23.078125 4.453125 -22.929688 4.078125 -22.640625 C 3.710938 -22.359375 3.5 -22.035156 3.4375 -21.671875 C 3.382812 -21.304688 3.414062 -20.960938 3.53125 -20.640625 C 3.707031 -20.203125 4.003906 -19.835938 4.421875 -19.546875 C 4.835938 -19.265625 5.296875 -18.984375 5.796875 -18.703125 C 6.304688 -18.421875 6.800781 -18.09375 7.28125 -17.71875 C 7.757812 -17.351562 8.148438 -16.867188 8.453125 -16.265625 C 8.765625 -15.671875 8.921875 -14.894531 8.921875 -13.9375 L 8.921875 0 L 0.84375 0 L 0.84375 -17.25 C 0.84375 -18.84375 1.117188 -20.15625 1.671875 -21.1875 C 2.222656 -22.21875 2.9375 -23.03125 3.8125 -23.625 C 4.6875 -24.21875 5.625 -24.632812 6.625 -24.875 C 7.632812 -25.125 8.597656 -25.25 9.515625 -25.25 C 11.816406 -25.25 13.867188 -24.9375 15.671875 -24.3125 C 17.484375 -23.6875 18.910156 -22.816406 19.953125 -21.703125 C 21.003906 -20.597656 21.53125 -19.320312 21.53125 -17.875 C 21.53125 -16.320312 21.054688 -14.890625 20.109375 -13.578125 C 19.160156 -12.265625 17.789062 -11.203125 16 -10.390625 C 14.207031 -9.578125 12.046875 -9.171875 9.515625 -9.171875 Z M 9.515625 -9.171875 "/></g></g></g><g fill="#ff9c9c" fill-opacity="0.4"><g transform="translate(96.207781, 27.862485)"><g><path d="M 13.15625 -25.21875 C 14.90625 -25.21875 16.523438 -24.890625 18.015625 -24.234375 C 19.515625 -23.585938 20.84375 -22.675781 22 -21.5 C 23.15625 -20.332031 24.050781 -18.984375 24.6875 -17.453125 C 25.332031 -15.921875 25.65625 -14.269531 25.65625 -12.5 C 25.65625 -10.726562 25.332031 -9.070312 24.6875 -7.53125 C 24.050781 -6 23.15625 -4.648438 22 -3.484375 C 20.84375 -2.316406 19.515625 -1.398438 18.015625 -0.734375 C 16.523438 -0.0664062 14.90625 0.265625 13.15625 0.265625 C 11.4375 0.265625 9.820312 -0.0664062 8.3125 -0.734375 C 6.800781 -1.398438 5.472656 -2.316406 4.328125 -3.484375 C 3.179688 -4.648438 2.28125 -6 1.625 -7.53125 C 0.976562 -9.070312 0.65625 -10.726562 0.65625 -12.5 C 0.65625 -14.269531 0.976562 -15.921875 1.625 -17.453125 C 2.28125 -18.984375 3.179688 -20.332031 4.328125 -21.5 C 5.472656 -22.675781 6.800781 -23.585938 8.3125 -24.234375 C 9.820312 -24.890625 11.4375 -25.21875 13.15625 -25.21875 Z M 19.390625 -2.46875 C 20.097656 -2.914062 20.457031 -3.769531 20.46875 -5.03125 C 20.488281 -6.289062 20.203125 -7.785156 19.609375 -9.515625 C 19.015625 -11.253906 18.140625 -13.035156 16.984375 -14.859375 C 15.859375 -16.703125 14.648438 -18.273438 13.359375 -19.578125 C 12.066406 -20.878906 10.847656 -21.796875 9.703125 -22.328125 C 8.566406 -22.867188 7.640625 -22.921875 6.921875 -22.484375 C 6.234375 -22.046875 5.878906 -21.195312 5.859375 -19.9375 C 5.835938 -18.6875 6.125 -17.191406 6.71875 -15.453125 C 7.320312 -13.722656 8.191406 -11.9375 9.328125 -10.09375 C 10.484375 -8.25 11.703125 -6.675781 12.984375 -5.375 C 14.273438 -4.070312 15.492188 -3.15625 16.640625 -2.625 C 17.785156 -2.101562 18.703125 -2.050781 19.390625 -2.46875 Z M 19.390625 -2.46875 "/></g></g></g><g fill="#2e2e2e" fill-opacity="1"><g transform="translate(0.333445, 27.862485)"><g><path d="M 9.515625 -9.171875 L 9.515625 -9.921875 C 10.398438 -9.921875 11.164062 -10.175781 11.8125 -10.6875 C 12.46875 -11.207031 12.941406 -11.90625 13.234375 -12.78125 C 13.523438 -13.664062 13.582031 -14.65625 13.40625 -15.75 C 13.238281 -16.84375 12.773438 -17.984375 12.015625 -19.171875 C 11.523438 -19.929688 10.921875 -20.601562 10.203125 -21.1875 C 9.492188 -21.78125 8.765625 -22.242188 8.015625 -22.578125 C 7.265625 -22.910156 6.554688 -23.078125 5.890625 -23.078125 C 5.054688 -23.078125 4.453125 -22.929688 4.078125 -22.640625 C 3.710938 -22.359375 3.5 -22.035156 3.4375 -21.671875 C 3.382812 -21.304688 3.414062 -20.960938 3.53125 -20.640625 C 3.707031 -20.203125 4.003906 -19.835938 4.421875 -19.546875 C 4.835938 -19.265625 5.296875 -18.984375 5.796875 -18.703125 C 6.304688 -18.421875 6.800781 -18.09375 7.28125 -17.71875 C 7.757812 -17.351562 8.148438 -16.867188 8.453125 -16.265625 C 8.765625 -15.671875 8.921875 -14.894531 8.921875 -13.9375 L 8.921875 0 L 0.84375 0 L 0.84375 -17.25 C 0.84375 -18.84375 1.117188 -20.15625 1.671875 -21.1875 C 2.222656 -22.21875 2.9375 -23.03125 3.8125 -23.625 C 4.6875 -24.21875 5.625 -24.632812 6.625 -24.875 C 7.632812 -25.125 8.597656 -25.25 9.515625 -25.25 C 11.816406 -25.25 13.867188 -24.9375 15.671875 -24.3125 C 17.484375 -23.6875 18.910156 -22.816406 19.953125 -21.703125 C 21.003906 -20.597656 21.53125 -19.320312 21.53125 -17.875 C 21.53125 -16.320312 21.054688 -14.890625 20.109375 -13.578125 C 19.160156 -12.265625 17.789062 -11.203125 16 -10.390625 C 14.207031 -9.578125 12.046875 -9.171875 9.515625 -9.171875 Z M 9.515625 -9.171875 "/></g></g></g><g fill="#2e2e2e" fill-opacity="1"><g transform="translate(22.707807, 27.862485)"><g><path d="M 13.15625 -25.21875 C 14.90625 -25.21875 16.523438 -24.890625 18.015625 -24.234375 C 19.515625 -23.585938 20.84375 -22.675781 22 -21.5 C 23.15625 -20.332031 24.050781 -18.984375 24.6875 -17.453125 C 25.332031 -15.921875 25.65625 -14.269531 25.65625 -12.5 C 25.65625 -10.726562 25.332031 -9.070312 24.6875 -7.53125 C 24.050781 -6 23.15625 -4.648438 22 -3.484375 C 20.84375 -2.316406 19.515625 -1.398438 18.015625 -0.734375 C 16.523438 -0.0664062 14.90625 0.265625 13.15625 0.265625 C 11.4375 0.265625 9.820312 -0.0664062 8.3125 -0.734375 C 6.800781 -1.398438 5.472656 -2.316406 4.328125 -3.484375 C 3.179688 -4.648438 2.28125 -6 1.625 -7.53125 C 0.976562 -9.070312 0.65625 -10.726562 0.65625 -12.5 C 0.65625 -14.269531 0.976562 -15.921875 1.625 -17.453125 C 2.28125 -18.984375 3.179688 -20.332031 4.328125 -21.5 C 5.472656 -22.675781 6.800781 -23.585938 8.3125 -24.234375 C 9.820312 -24.890625 11.4375 -25.21875 13.15625 -25.21875 Z M 19.390625 -2.46875 C 20.097656 -2.914062 20.457031 -3.769531 20.46875 -5.03125 C 20.488281 -6.289062 20.203125 -7.785156 19.609375 -9.515625 C 19.015625 -11.253906 18.140625 -13.035156 16.984375 -14.859375 C 15.859375 -16.703125 14.648438 -18.273438 13.359375 -19.578125 C 12.066406 -20.878906 10.847656 -21.796875 9.703125 -22.328125 C 8.566406 -22.867188 7.640625 -22.921875 6.921875 -22.484375 C 6.234375 -22.046875 5.878906 -21.195312 5.859375 -19.9375 C 5.835938 -18.6875 6.125 -17.191406 6.71875 -15.453125 C 7.320312 -13.722656 8.191406 -11.9375 9.328125 -10.09375 C 10.484375 -8.25 11.703125 -6.675781 12.984375 -5.375 C 14.273438 -4.070312 15.492188 -3.15625 16.640625 -2.625 C 17.785156 -2.101562 18.703125 -2.050781 19.390625 -2.46875 Z M 19.390625 -2.46875 "/></g></g></g><g fill="#2e2e2e" fill-opacity="1"><g transform="translate(49.026251, 27.862485)"><g><path d="M 11.578125 0 L 0.65625 0 C 0.65625 -1.320312 0.851562 -2.707031 1.25 -4.15625 C 1.644531 -5.613281 2.15625 -7.050781 2.78125 -8.46875 C 3.40625 -9.894531 4.066406 -11.234375 4.765625 -12.484375 C 5.472656 -13.742188 6.132812 -14.84375 6.75 -15.78125 C 7.164062 -16.414062 7.617188 -17.050781 8.109375 -17.6875 C 8.597656 -18.332031 9.078125 -18.945312 9.546875 -19.53125 C 9.078125 -21.082031 8.617188 -22.25 8.171875 -23.03125 C 7.734375 -23.820312 7.097656 -24.21875 6.265625 -24.21875 L 6.265625 -25.171875 C 8.128906 -25.171875 9.769531 -24.925781 11.1875 -24.4375 C 12.601562 -23.945312 13.816406 -23.296875 14.828125 -22.484375 C 15.847656 -21.671875 16.691406 -20.757812 17.359375 -19.75 C 18.023438 -18.75 18.53125 -17.734375 18.875 -16.703125 C 19.65625 -14.335938 20.300781 -12.085938 20.8125 -9.953125 C 21.332031 -7.816406 21.960938 -5.890625 22.703125 -4.171875 C 23.171875 -3.109375 23.800781 -2.519531 24.59375 -2.40625 C 25.394531 -2.300781 26.09375 -2.554688 26.6875 -3.171875 L 27.3125 -2.5 C 26.570312 -1.46875 25.664062 -0.75 24.59375 -0.34375 C 23.53125 0.0625 22.53125 0.265625 21.59375 0.265625 C 20.25 0.265625 19.03125 -0.0664062 17.9375 -0.734375 C 16.84375 -1.398438 15.910156 -2.265625 15.140625 -3.328125 C 14.378906 -4.398438 13.789062 -5.539062 13.375 -6.75 L 7.890625 -6.75 C 8.304688 -5.414062 8.835938 -4.160156 9.484375 -2.984375 C 10.140625 -1.804688 10.835938 -0.8125 11.578125 0 Z M 13.078125 -7.625 C 12.546875 -9.320312 12.015625 -11.128906 11.484375 -13.046875 C 10.953125 -14.960938 10.414062 -16.78125 9.875 -18.5 C 9.65625 -18.1875 9.4375 -17.878906 9.21875 -17.578125 C 9 -17.285156 8.773438 -16.96875 8.546875 -16.625 C 7.710938 -15.375 7.257812 -13.953125 7.1875 -12.359375 C 7.113281 -10.773438 7.273438 -9.195312 7.671875 -7.625 Z M 13.078125 -7.625 "/></g></g></g><g fill="#2e2e2e" fill-opacity="1"><g transform="translate(73.833419, 27.862485)"><g><path d="M 9.515625 -9.171875 L 9.515625 -9.921875 C 10.398438 -9.921875 11.164062 -10.175781 11.8125 -10.6875 C 12.46875 -11.207031 12.941406 -11.90625 13.234375 -12.78125 C 13.523438 -13.664062 13.582031 -14.65625 13.40625 -15.75 C 13.238281 -16.84375 12.773438 -17.984375 12.015625 -19.171875 C 11.523438 -19.929688 10.921875 -20.601562 10.203125 -21.1875 C 9.492188 -21.78125 8.765625 -22.242188 8.015625 -22.578125 C 7.265625 -22.910156 6.554688 -23.078125 5.890625 -23.078125 C 5.054688 -23.078125 4.453125 -22.929688 4.078125 -22.640625 C 3.710938 -22.359375 3.5 -22.035156 3.4375 -21.671875 C 3.382812 -21.304688 3.414062 -20.960938 3.53125 -20.640625 C 3.707031 -20.203125 4.003906 -19.835938 4.421875 -19.546875 C 4.835938 -19.265625 5.296875 -18.984375 5.796875 -18.703125 C 6.304688 -18.421875 6.800781 -18.09375 7.28125 -17.71875 C 7.757812 -17.351562 8.148438 -16.867188 8.453125 -16.265625 C 8.765625 -15.671875 8.921875 -14.894531 8.921875 -13.9375 L 8.921875 0 L 0.84375 0 L 0.84375 -17.25 C 0.84375 -18.84375 1.117188 -20.15625 1.671875 -21.1875 C 2.222656 -22.21875 2.9375 -23.03125 3.8125 -23.625 C 4.6875 -24.21875 5.625 -24.632812 6.625 -24.875 C 7.632812 -25.125 8.597656 -25.25 9.515625 -25.25 C 11.816406 -25.25 13.867188 -24.9375 15.671875 -24.3125 C 17.484375 -23.6875 18.910156 -22.816406 19.953125 -21.703125 C 21.003906 -20.597656 21.53125 -19.320312 21.53125 -17.875 C 21.53125 -16.320312 21.054688 -14.890625 20.109375 -13.578125 C 19.160156 -12.265625 17.789062 -11.203125 16 -10.390625 C 14.207031 -9.578125 12.046875 -9.171875 9.515625 -9.171875 Z M 9.515625 -9.171875 "/></g></g></g><g fill="#2e2e2e" fill-opacity="1"><g transform="translate(96.207781, 27.862485)"><g><path d="M 13.15625 -25.21875 C 14.90625 -25.21875 16.523438 -24.890625 18.015625 -24.234375 C 19.515625 -23.585938 20.84375 -22.675781 22 -21.5 C 23.15625 -20.332031 24.050781 -18.984375 24.6875 -17.453125 C 25.332031 -15.921875 25.65625 -14.269531 25.65625 -12.5 C 25.65625 -10.726562 25.332031 -9.070312 24.6875 -7.53125 C 24.050781 -6 23.15625 -4.648438 22 -3.484375 C 20.84375 -2.316406 19.515625 -1.398438 18.015625 -0.734375 C 16.523438 -0.0664062 14.90625 0.265625 13.15625 0.265625 C 11.4375 0.265625 9.820312 -0.0664062 8.3125 -0.734375 C 6.800781 -1.398438 5.472656 -2.316406 4.328125 -3.484375 C 3.179688 -4.648438 2.28125 -6 1.625 -7.53125 C 0.976562 -9.070312 0.65625 -10.726562 0.65625 -12.5 C 0.65625 -14.269531 0.976562 -15.921875 1.625 -17.453125 C 2.28125 -18.984375 3.179688 -20.332031 4.328125 -21.5 C 5.472656 -22.675781 6.800781 -23.585938 8.3125 -24.234375 C 9.820312 -24.890625 11.4375 -25.21875 13.15625 -25.21875 Z M 19.390625 -2.46875 C 20.097656 -2.914062 20.457031 -3.769531 20.46875 -5.03125 C 20.488281 -6.289062 20.203125 -7.785156 19.609375 -9.515625 C 19.015625 -11.253906 18.140625 -13.035156 16.984375 -14.859375 C 15.859375 -16.703125 14.648438 -18.273438 13.359375 -19.578125 C 12.066406 -20.878906 10.847656 -21.796875 9.703125 -22.328125 C 8.566406 -22.867188 7.640625 -22.921875 6.921875 -22.484375 C 6.234375 -22.046875 5.878906 -21.195312 5.859375 -19.9375 C 5.835938 -18.6875 6.125 -17.191406 6.71875 -15.453125 C 7.320312 -13.722656 8.191406 -11.9375 9.328125 -10.09375 C 10.484375 -8.25 11.703125 -6.675781 12.984375 -5.375 C 14.273438 -4.070312 15.492188 -3.15625 16.640625 -2.625 C 17.785156 -2.101562 18.703125 -2.050781 19.390625 -2.46875 Z M 19.390625 -2.46875 "/></g></g></g></g></g><g transform="matrix(1, 0, 0, 1, 56, 69)"><g clip-path="url(#c95a63a97d)"><g fill="#2e2e2e" fill-opacity="1"><g transform="translate(1.270697, 9.28479)"><g><path d="M 5.0625 0 L 3.6875 -1.921875 C 3.539062 -1.898438 3.382812 -1.890625 3.21875 -1.890625 L 1.609375 -1.890625 L 1.609375 0 L 0.96875 0 L 0.96875 -5.984375 L 3.21875 -5.984375 C 3.976562 -5.984375 4.570312 -5.800781 5 -5.4375 C 5.4375 -5.070312 5.65625 -4.570312 5.65625 -3.9375 C 5.65625 -3.46875 5.535156 -3.070312 5.296875 -2.75 C 5.066406 -2.425781 4.734375 -2.191406 4.296875 -2.046875 L 5.75 0 Z M 3.203125 -2.4375 C 3.785156 -2.4375 4.234375 -2.566406 4.546875 -2.828125 C 4.867188 -3.085938 5.03125 -3.457031 5.03125 -3.9375 C 5.03125 -4.414062 4.867188 -4.785156 4.546875 -5.046875 C 4.234375 -5.304688 3.785156 -5.4375 3.203125 -5.4375 L 1.609375 -5.4375 L 1.609375 -2.4375 Z M 3.203125 -2.4375 "/></g></g></g><g fill="#2e2e2e" fill-opacity="1"><g transform="translate(10.532303, 9.28479)"><g><path d="M 5.203125 -0.546875 L 5.203125 0 L 0.96875 0 L 0.96875 -5.984375 L 5.078125 -5.984375 L 5.078125 -5.4375 L 1.609375 -5.4375 L 1.609375 -3.3125 L 4.703125 -3.3125 L 4.703125 -2.765625 L 1.609375 -2.765625 L 1.609375 -0.546875 Z M 3.640625 -7.53125 L 4.453125 -7.53125 L 3.078125 -6.46875 L 2.46875 -6.46875 Z M 3.640625 -7.53125 "/></g></g></g><g fill="#2e2e2e" fill-opacity="1"><g transform="translate(19.33217, 9.28479)"><g><path d="M 5.953125 -5.984375 L 3.296875 0 L 2.671875 0 L 0.03125 -5.984375 L 0.703125 -5.984375 L 3 -0.78125 L 5.3125 -5.984375 Z M 5.953125 -5.984375 "/></g></g></g><g fill="#2e2e2e" fill-opacity="1"><g transform="translate(28.380014, 9.28479)"><g><path d="M 5.203125 -0.546875 L 5.203125 0 L 0.96875 0 L 0.96875 -5.984375 L 5.078125 -5.984375 L 5.078125 -5.4375 L 1.609375 -5.4375 L 1.609375 -3.3125 L 4.703125 -3.3125 L 4.703125 -2.765625 L 1.609375 -2.765625 L 1.609375 -0.546875 Z M 3.640625 -7.53125 L 4.453125 -7.53125 L 3.078125 -6.46875 L 2.46875 -6.46875 Z M 3.640625 -7.53125 "/></g></g></g><g fill="#2e2e2e" fill-opacity="1"><g transform="translate(37.179881, 9.28479)"><g><path d="M 0.96875 -5.984375 L 1.609375 -5.984375 L 1.609375 -0.546875 L 4.953125 -0.546875 L 4.953125 0 L 0.96875 0 Z M 0.96875 -5.984375 "/></g></g></g><g fill="#2e2e2e" fill-opacity="1"><g transform="translate(45.295692, 9.28479)"><g><path d="M 4.71875 -1.59375 L 1.390625 -1.59375 L 0.671875 0 L 0.015625 0 L 2.75 -5.984375 L 3.375 -5.984375 L 6.109375 0 L 5.4375 0 Z M 4.5 -2.109375 L 3.0625 -5.328125 L 1.625 -2.109375 Z M 4.5 -2.109375 "/></g></g></g><g fill="#2e2e2e" fill-opacity="1"><g transform="translate(54.505996, 9.28479)"><g><path d="M 2.140625 -5.4375 L 0.03125 -5.4375 L 0.03125 -5.984375 L 4.875 -5.984375 L 4.875 -5.4375 L 2.765625 -5.4375 L 2.765625 0 L 2.140625 0 Z M 2.140625 -5.4375 "/></g></g></g><g fill="#2e2e2e" fill-opacity="1"><g transform="translate(62.493551, 9.28479)"><g><path d="M 5.203125 -0.546875 L 5.203125 0 L 0.96875 0 L 0.96875 -5.984375 L 5.078125 -5.984375 L 5.078125 -5.4375 L 1.609375 -5.4375 L 1.609375 -3.3125 L 4.703125 -3.3125 L 4.703125 -2.765625 L 1.609375 -2.765625 L 1.609375 -0.546875 Z M 5.203125 -0.546875 "/></g></g></g><g fill="#2e2e2e" fill-opacity="1"><g transform="translate(71.293418, 9.28479)"><g><path d="M 3.390625 0.046875 C 2.609375 0.046875 2 -0.171875 1.5625 -0.609375 C 1.132812 -1.054688 0.921875 -1.707031 0.921875 -2.5625 L 0.921875 -5.984375 L 1.5625 -5.984375 L 1.5625 -2.578125 C 1.5625 -1.878906 1.71875 -1.359375 2.03125 -1.015625 C 2.34375 -0.679688 2.796875 -0.515625 3.390625 -0.515625 C 3.984375 -0.515625 4.4375 -0.679688 4.75 -1.015625 C 5.0625 -1.359375 5.21875 -1.878906 5.21875 -2.578125 L 5.21875 -5.984375 L 5.84375 -5.984375 L 5.84375 -2.5625 C 5.84375 -1.707031 5.625 -1.054688 5.1875 -0.609375 C 4.757812 -0.171875 4.160156 0.046875 3.390625 0.046875 Z M 3.390625 0.046875 "/></g></g></g><g fill="#2e2e2e" fill-opacity="1"><g transform="translate(81.145029, 9.28479)"><g><path d="M 5.0625 0 L 3.6875 -1.921875 C 3.539062 -1.898438 3.382812 -1.890625 3.21875 -1.890625 L 1.609375 -1.890625 L 1.609375 0 L 0.96875 0 L 0.96875 -5.984375 L 3.21875 -5.984375 C 3.976562 -5.984375 4.570312 -5.800781 5 -5.4375 C 5.4375 -5.070312 5.65625 -4.570312 5.65625 -3.9375 C 5.65625 -3.46875 5.535156 -3.070312 5.296875 -2.75 C 5.066406 -2.425781 4.734375 -2.191406 4.296875 -2.046875 L 5.75 0 Z M 3.203125 -2.4375 C 3.785156 -2.4375 4.234375 -2.566406 4.546875 -2.828125 C 4.867188 -3.085938 5.03125 -3.457031 5.03125 -3.9375 C 5.03125 -4.414062 4.867188 -4.785156 4.546875 -5.046875 C 4.234375 -5.304688 3.785156 -5.4375 3.203125 -5.4375 L 1.609375 -5.4375 L 1.609375 -2.4375 Z M 3.203125 -2.4375 "/></g></g></g><g fill="#2e2e2e" fill-opacity="1"><g transform="translate(90.406635, 9.28479)"><g/></g></g><g fill="#2e2e2e" fill-opacity="1"><g transform="translate(95.726358, 9.28479)"><g><path d="M 0.96875 -5.984375 L 3.40625 -5.984375 C 4.039062 -5.984375 4.597656 -5.851562 5.078125 -5.59375 C 5.566406 -5.34375 5.941406 -4.988281 6.203125 -4.53125 C 6.472656 -4.082031 6.609375 -3.566406 6.609375 -2.984375 C 6.609375 -2.410156 6.472656 -1.894531 6.203125 -1.4375 C 5.941406 -0.988281 5.566406 -0.632812 5.078125 -0.375 C 4.597656 -0.125 4.039062 0 3.40625 0 L 0.96875 0 Z M 3.375 -0.546875 C 3.894531 -0.546875 4.351562 -0.648438 4.75 -0.859375 C 5.144531 -1.066406 5.445312 -1.351562 5.65625 -1.71875 C 5.875 -2.09375 5.984375 -2.515625 5.984375 -2.984375 C 5.984375 -3.460938 5.875 -3.882812 5.65625 -4.25 C 5.445312 -4.625 5.144531 -4.914062 4.75 -5.125 C 4.351562 -5.332031 3.894531 -5.4375 3.375 -5.4375 L 1.609375 -5.4375 L 1.609375 -0.546875 Z M 3.375 -0.546875 "/></g></g></g><g fill="#2e2e2e" fill-opacity="1"><g transform="translate(105.868695, 9.28479)"><g><path d="M 5.203125 -0.546875 L 5.203125 0 L 0.96875 0 L 0.96875 -5.984375 L 5.078125 -5.984375 L 5.078125 -5.4375 L 1.609375 -5.4375 L 1.609375 -3.3125 L 4.703125 -3.3125 L 4.703125 -2.765625 L 1.609375 -2.765625 L 1.609375 -0.546875 Z M 5.203125 -0.546875 "/></g></g></g><g fill="#2e2e2e" fill-opacity="1"><g transform="translate(29.334649, 20.786565)"><g><path d="M 3.21875 -5.984375 C 3.976562 -5.984375 4.570312 -5.800781 5 -5.4375 C 5.4375 -5.070312 5.65625 -4.570312 5.65625 -3.9375 C 5.65625 -3.289062 5.4375 -2.785156 5 -2.421875 C 4.570312 -2.066406 3.976562 -1.890625 3.21875 -1.890625 L 1.609375 -1.890625 L 1.609375 0 L 0.96875 0 L 0.96875 -5.984375 Z M 3.203125 -2.4375 C 3.785156 -2.4375 4.234375 -2.566406 4.546875 -2.828125 C 4.867188 -3.085938 5.03125 -3.457031 5.03125 -3.9375 C 5.03125 -4.414062 4.867188 -4.785156 4.546875 -5.046875 C 4.234375 -5.304688 3.785156 -5.4375 3.203125 -5.4375 L 1.609375 -5.4375 L 1.609375 -2.4375 Z M 3.203125 -2.4375 "/></g></g></g><g fill="#2e2e2e" fill-opacity="1"><g transform="translate(38.553507, 20.786565)"><g><path d="M 4.71875 -1.59375 L 1.390625 -1.59375 L 0.671875 0 L 0.015625 0 L 2.75 -5.984375 L 3.375 -5.984375 L 6.109375 0 L 5.4375 0 Z M 4.5 -2.109375 L 3.0625 -5.328125 L 1.625 -2.109375 Z M 4.5 -2.109375 "/></g></g></g><g fill="#2e2e2e" fill-opacity="1"><g transform="translate(47.763811, 20.786565)"><g><path d="M 5.0625 0 L 3.6875 -1.921875 C 3.539062 -1.898438 3.382812 -1.890625 3.21875 -1.890625 L 1.609375 -1.890625 L 1.609375 0 L 0.96875 0 L 0.96875 -5.984375 L 3.21875 -5.984375 C 3.976562 -5.984375 4.570312 -5.800781 5 -5.4375 C 5.4375 -5.070312 5.65625 -4.570312 5.65625 -3.9375 C 5.65625 -3.46875 5.535156 -3.070312 5.296875 -2.75 C 5.066406 -2.425781 4.734375 -2.191406 4.296875 -2.046875 L 5.75 0 Z M 3.203125 -2.4375 C 3.785156 -2.4375 4.234375 -2.566406 4.546875 -2.828125 C 4.867188 -3.085938 5.03125 -3.457031 5.03125 -3.9375 C 5.03125 -4.414062 4.867188 -4.785156 4.546875 -5.046875 C 4.234375 -5.304688 3.785156 -5.4375 3.203125 -5.4375 L 1.609375 -5.4375 L 1.609375 -2.4375 Z M 3.203125 -2.4375 "/></g></g></g><g fill="#2e2e2e" fill-opacity="1"><g transform="translate(57.025418, 20.786565)"><g><path d="M 1.609375 -5.4375 L 1.609375 -3.078125 L 4.703125 -3.078125 L 4.703125 -2.53125 L 1.609375 -2.53125 L 1.609375 0 L 0.96875 0 L 0.96875 -5.984375 L 5.078125 -5.984375 L 5.078125 -5.4375 Z M 1.609375 -5.4375 "/></g></g></g><g fill="#2e2e2e" fill-opacity="1"><g transform="translate(65.517461, 20.786565)"><g><path d="M 3.390625 0.046875 C 2.609375 0.046875 2 -0.171875 1.5625 -0.609375 C 1.132812 -1.054688 0.921875 -1.707031 0.921875 -2.5625 L 0.921875 -5.984375 L 1.5625 -5.984375 L 1.5625 -2.578125 C 1.5625 -1.878906 1.71875 -1.359375 2.03125 -1.015625 C 2.34375 -0.679688 2.796875 -0.515625 3.390625 -0.515625 C 3.984375 -0.515625 4.4375 -0.679688 4.75 -1.015625 C 5.0625 -1.359375 5.21875 -1.878906 5.21875 -2.578125 L 5.21875 -5.984375 L 5.84375 -5.984375 L 5.84375 -2.5625 C 5.84375 -1.707031 5.625 -1.054688 5.1875 -0.609375 C 4.757812 -0.171875 4.160156 0.046875 3.390625 0.046875 Z M 3.390625 0.046875 "/></g></g></g><g fill="#2e2e2e" fill-opacity="1"><g transform="translate(75.369072, 20.786565)"><g><path d="M 7.1875 -5.984375 L 7.1875 0 L 6.578125 0 L 6.578125 -4.78125 L 4.234375 -0.765625 L 3.9375 -0.765625 L 1.578125 -4.765625 L 1.578125 0 L 0.96875 0 L 0.96875 -5.984375 L 1.5 -5.984375 L 4.09375 -1.546875 L 6.671875 -5.984375 Z M 7.1875 -5.984375 "/></g></g></g></g></g></svg>